<svg width="35" height="35" viewBox="0 0 35 35" fill="none" xmlns="http://www.w3.org/2000/svg">
<path d="M17.5014 2.91663C25.5558 2.91663 32.0848 9.44558 32.0848 17.5C32.0848 25.5543 25.5558 32.0833 17.5014 32.0833C14.9242 32.0877 12.3923 31.4057 10.166 30.1073L2.92395 32.0833L4.89561 24.8383C3.59618 22.6113 2.9136 20.0783 2.91811 17.5C2.91811 9.44558 9.44707 2.91663 17.5014 2.91663ZM12.5314 10.6458L12.2398 10.6575C12.0512 10.6705 11.867 10.72 11.6973 10.8033C11.5392 10.893 11.3948 11.005 11.2685 11.1358C11.0935 11.3006 10.9944 11.4435 10.8879 11.582C10.3485 12.2834 10.0581 13.1444 10.0625 14.0291C10.0654 14.7437 10.2521 15.4393 10.5437 16.0898C11.1402 17.4052 12.1217 18.7979 13.4167 20.0885C13.7287 20.3991 14.035 20.7112 14.3646 21.0014C15.9737 22.418 17.8912 23.4397 19.9646 23.9852L20.7929 24.112C21.0627 24.1266 21.3325 24.1062 21.6037 24.0931C22.0284 24.0707 22.443 23.9557 22.8185 23.7562C23.0093 23.6575 23.1957 23.5505 23.3771 23.4354C23.3771 23.4354 23.4388 23.3936 23.5594 23.3041C23.7562 23.1583 23.8773 23.0548 24.0406 22.8841C24.1631 22.7577 24.2652 22.6109 24.3469 22.4437C24.4606 22.206 24.5744 21.7525 24.621 21.3748C24.656 21.086 24.6458 20.9285 24.6414 20.8308C24.6356 20.6748 24.5058 20.5129 24.3644 20.4443L23.5156 20.0637C23.5156 20.0637 22.2469 19.511 21.471 19.1581C21.3898 19.1227 21.3028 19.1025 21.2144 19.0983C21.1146 19.0879 21.0137 19.099 20.9186 19.1309C20.8235 19.1629 20.7364 19.2149 20.6631 19.2835C20.6558 19.2806 20.5581 19.3637 19.5037 20.6412C19.4432 20.7225 19.3599 20.784 19.2643 20.8177C19.1687 20.8515 19.0652 20.8561 18.9671 20.8308C18.872 20.8055 18.7789 20.7733 18.6885 20.7345C18.5077 20.6587 18.445 20.6295 18.321 20.577C17.4838 20.2123 16.7088 19.7188 16.0242 19.1143C15.8404 18.9539 15.6698 18.7789 15.4948 18.6098C14.9211 18.0603 14.4211 17.4387 14.0073 16.7606L13.9212 16.622C13.8604 16.5284 13.8105 16.4281 13.7725 16.3231C13.7171 16.1087 13.8614 15.9366 13.8614 15.9366C13.8614 15.9366 14.2158 15.5487 14.3806 15.3387C14.541 15.1345 14.6767 14.9362 14.7642 14.7948C14.9362 14.5177 14.9902 14.2333 14.8998 14.0131C14.4914 13.0156 14.0695 12.0234 13.6339 11.0366C13.5479 10.8412 13.2927 10.7012 13.0608 10.6735C12.9821 10.6638 12.9033 10.656 12.8246 10.6502C12.6288 10.6389 12.4324 10.6409 12.2369 10.656L12.5314 10.6458Z" fill="white"/>
</svg>
